<svg xmlns="http://www.w3.org/2000/svg" width="25" height="25" viewBox="0 0 25 25" aria-hidden="true" focusable="false" data-prefix="fab" data-icon="linkedin" class="svg-inline--fa fa-github fa-w-16" role="img" xmlns="http://www.w3.org/2000/svg">
  <path id="_13880855881556105710" data-name="13880855881556105710" d="M12.5,0A12.5,12.5,0,1,0,25,12.5,12.5,12.5,0,0,0,12.5,0ZM6,10.353H8.834v8.511H6ZM9.02,7.72A1.472,1.472,0,0,0,7.436,6.25,1.475,1.475,0,1,0,7.4,9.191h.018A1.477,1.477,0,0,0,9.02,7.72Zm6.768,2.433c1.864,0,3.262,1.217,3.262,3.831v4.88H16.217V14.311c0-1.144-.41-1.924-1.435-1.924a1.55,1.55,0,0,0-1.453,1.034,1.935,1.935,0,0,0-.093.69v4.753H10.4s.037-7.713,0-8.511h2.833v1.206A2.813,2.813,0,0,1,15.788,10.153Z" fill="currentColor" fill-rule="evenodd"/>
</svg>
